<?xml version="1.0" encoding="UTF-8"?>
<svg id="Layer_2" xmlns="http://www.w3.org/2000/svg" viewBox="0 0 2999.67 2999.67">
  <g>
    <path id="key_ESC" d="M367.14,1162.31h-144.76v-144.99h144.76v144.99Z"/>
    <path id="key_F1" d="M414.87,1162v-144.84h144.73v144.84h-144.73Z"/>
    <path id="key_F2" d="M570.49,1161.67v-144.44h144.92v144.44h-144.92Z"/>
    <path id="key_F3" d="M726.2,1161.44v-144.64h144.79v144.64h-144.79Z"/>
    <path id="key_F4" d="M1026.76,1016.59v144.93h-144.83v-144.93h144.83Z"/>
    <path id="key_F5" d="M1076.66,1161.31v-144.71h144.71v144.71h-144.71Z"/>
    <path id="key_F6" d="M1232.41,1016.26h144.86v144.82h-144.86v-144.82Z"/>
    <path id="key_F7" d="M1387.86,1161.13v-144.86h144.88v144.86h-144.88Z"/>
    <path id="key_F8" d="M1543.41,1160.83v-144.52h145.05v144.52h-145.05Z"/>
    <path id="key_F9" d="M1883.34,1160.94h-144.72v-144.72h144.72v144.72Z"/>
    <path id="key_F10" d="M1893.99,1160.35v-144.29h144.98v144.29h-144.98Z"/>
    <path id="key_F11" d="M2194.75,1015.47v145h-144.87v-145h144.87Z"/>
    <path id="key_F12" d="M2205.4,1015.04h144.48v145.17h-144.48v-145.17Z"/>
    <path id="key_PRINTSCREEN" d="M2400.34,1159.61v-144.53h144.71v144.53h-144.71Z"/>

    <path id="key_GRAVE" d="M367.79,1225.91v144.38h-144.96v-144.38h144.96Z"/>
    <path id="key_1" d="M378.14,1370.1v-144.35h144.95v144.35h-144.95Z"/>
    <path id="key_2" d="M533.79,1370.13v-144.84h144.73v144.84h-144.73Z"/>
    <path id="key_3" d="M689.02,1369.74v-144.39h145.17v144.39h-145.17Z"/>
    <path id="key_4" d="M845.09,1224.89h144.47v144.67h-144.47v-144.67Z"/>
    <path id="key_5" d="M1000.63,1224.69h144.65v144.81h-144.65v-144.81Z"/>
    <path id="key_6" d="M1300.7,1369.47h-144.52v-144.7h144.52v144.7Z"/>
    <path id="key_7" d="M1456.54,1224.58v144.68h-144.78v-144.68h144.78Z"/>
    <path id="key_8" d="M1467.11,1224.16h144.49v145.12h-144.49v-145.12Z"/>
    <path id="key_9" d="M1622.55,1224.05h144.66v144.81h-144.66v-144.81Z"/>
    <path id="key_0" d="M1777.99,1368.99v-144.68h144.8v144.68h-144.8Z"/>
    <path id="key_MINUS" d="M2078.7,1224.16v144.67h-144.84v-144.67h144.84Z"/>
    <path id="key_EQUAL" d="M2088.91,1368.76v-144.73h145.1v144.73h-145.1Z"/>
    <path id="key_BACKSPACE" d="M2245.34,1223.31h299.05v145.08h-299.05v-145.08Z"/>

    <path id="key_TAB" d="M223.08,1525.73v-144.42h222.01v144.42h-222.01Z"/>
    <path id="key_Q" d="M456.08,1525.69v-144.69h144.79v144.69h-144.79Z"/>
    <path id="key_W" d="M611.75,1525.46v-144.69h144.72v144.69h-144.72Z"/>
    <path id="key_E" d="M767.38,1380.29h144.64v145.16h-144.64v-145.16Z"/>
    <path id="key_R" d="M1067.83,1380.53v144.57h-144.76v-144.57h144.76Z"/>
    <path id="key_T" d="M1078.17,1524.91v-144.27h144.97v144.27h-144.97Z"/>
    <path id="key_Y" d="M1378.69,1525.13h-144.61v-144.76h144.61v144.76Z"/>
    <path id="key_U" d="M1534.18,1525.26h-144.58v-145.15h144.58v145.15Z"/>
    <path id="key_I" d="M1689.71,1525.03h-144.63v-144.76h144.63v144.76Z"/>
    <path id="key_O" d="M1845.15,1524.63h-144.43v-144.86h144.43v144.86Z"/>
    <path id="key_P" d="M1856.16,1379.39h144.83v144.91h-144.83v-144.91Z"/>
    <path id="key_LBRACKET" d="M2156.33,1524.24h-144.52v-144.93h144.52v144.93Z"/>
    <path id="key_RBRACKET" d="M2312.12,1379.17v144.87h-144.85v-144.87h144.85Z"/>
    <path id="key_BACKSLASH" d="M2544.76,1523.96h-221.43v-145.01h221.43v145.01Z"/>

    <path id="key_CAPSLOCK" d="M222.85,1681.45v-144.78h261.8v144.78H222.85Z"/>
    <path id="key_A" d="M495.64,1536.22h144.32v144.95h-144.32v-144.95Z"/>
    <path id="key_S" d="M650.93,1536.2h144.46v144.98h-144.46v-144.98Z"/>
    <path id="key_D" d="M951.11,1681.33h-144.41v-145.06h144.41v145.06Z"/>
    <path id="key_F" d="M962.16,1535.88h144.6v144.76h-144.6v-144.76Z"/>
    <path id="key_G" d="M1262.46,1680.92h-144.89v-144.75h144.89v144.75Z"/>
    <path id="key_H" d="M1273.08,1535.62h144.78v144.79h-144.78v-144.79Z"/>
    <path id="key_J" d="M1428.77,1535.48h144.44v145.01h-144.44v-145.01Z"/>
    <path id="key_K" d="M1584.07,1535.31h145.13v144.94h-145.13v-144.94Z"/>
    <path id="key_L" d="M1884.53,1680.13h-144.69v-144.74h144.69v144.74Z"/>
    <path id="key_SEMICOLON" d="M1895.14,1534.81h144.96v144.84h-144.96v-144.84Z"/>
    <path id="key_QUOTE" d="M2050.58,1679.48v-144.35h144.86v144.35h-144.86Z"/>
    <path id="key_ENTER" d="M2545.37,1534.58v144.86h-338.88v-144.86h338.88Z"/>

    <path id="key_LSHIFT" d="M223.24,1837.14v-144.71h339.27v144.71H223.24Z"/>
    <path id="key_Z" d="M573.62,1691.95h144.66v144.8h-144.66v-144.8Z"/>
    <path id="key_X" d="M728.9,1691.74h144.46v145.04h-144.46v-145.04Z"/>
    <path id="key_C" d="M1029.55,1691.97v144.38h-145.01v-144.38h145.01Z"/>
    <path id="key_V" d="M1185.02,1836.34h-145.06v-144.82h145.06v144.82Z"/>
    <path id="key_B" d="M1340.7,1691.48v144.53h-145.19v-144.53h145.19Z"/>
    <path id="key_N" d="M1495.95,1691.16v144.84h-145.15v-144.84h145.15Z"/>
    <path id="key_M" d="M1506.78,1690.88h144.5v144.7h-144.5v-144.7Z"/>
    <path id="key_COMMA" d="M1807.06,1690.94v144.61h-144.74v-144.61h144.74Z"/>
    <path id="key_DOT" d="M1818.04,1690.37h144.22v144.92h-144.22v-144.92Z"/>
    <path id="key_SLASH" d="M1973.26,1690.21h144.63v145.15h-144.63v-145.15Z"/>
    <path id="key_RSHIFT" d="M2128.51,1835.08v-144.63h261.6v144.63h-261.6Z"/>
    
    <path id="key_LCTRL" d="M224.89,1847.93h180.64v145.05h-180.64v-145.05Z"/>
    <path id="key_LGUI" d="M600.12,1847.81v144.83h-180.74v-144.83h180.74Z"/>
    <path id="key_LALT" d="M613.66,1847.46h180.68v144.72h-180.68v-144.72Z"/>
    <path id="key_SPACE" d="M1766.16,1847.19v144.61h-955.51v-144.61h955.51Z"/>
    <path id="key_RALT" d="M1780.99,1846.08h144.37v145.08h-144.37v-145.08Z"/>
    <path id="key_FN" d="M1936.11,1990.86v-144.34h145.03v144.34h-145.03Z"/>
    <path id="key_RCTRL" d="M2236.72,1990.97h-144.5v-144.84h144.5v144.84Z"/>

    <path id="key_UP" d="M2586.99,1876.33h-145.05v-144.83h145.05v144.83Z"/>
    <path id="key_LEFT" d="M2286.63,1887.05h144.62v144.7h-144.62v-144.7Z"/>
    <path id="key_DOWN" d="M2587.26,1887.1v144.5h-145.12v-144.5h145.12Z"/>
    <path id="key_RIGHT" d="M2742.61,2031.85h-144.63v-145.15h144.63v145.15Z"/>

    <path id="key_DELETE" d="M2637.83,1368.07v-145.07h144.85v145.07h-144.85Z"/>
    <path id="key_PAGEUP" d="M2783.27,1379.33v143.96h-145.13v-143.96h145.13Z"/>
    <path id="key_PAGEDOWN" d="M2637.92,1678.97v-144.43h145.13v144.43h-145.13Z"/>
    <path id="key_END" d="M2783.5,1690.18v144.42h-145.07v-144.42h145.07Z"/>
  </g>
</svg>